<svg width="24" height="24" viewBox="0 0 24 24" fill="none" xmlns="http://www.w3.org/2000/svg">
<circle cx="12" cy="12" r="12" fill="#191919"/>
<path d="M17.034 11.3185H13.8758L16.6109 9.73555L16.0685 8.7934L13.3331 10.3764L14.9119 7.63476L13.9722 7.09094L12.3931 9.83185V6.66663H11.3076V9.83219L9.72849 7.09094L8.78848 7.63476L10.3673 10.3757L7.63255 8.7934L7.08982 9.73555L9.82487 11.3185H6.66663V12.4065H9.82453L7.08982 13.9894L7.6322 14.9316L10.3676 13.3486L8.78848 16.0902L9.72814 16.6341L11.3076 13.8928V17.058H12.3931V13.8249L14.0012 16.6167L14.8825 16.1069L13.274 13.3144L16.0678 14.9313L16.6105 13.9891L13.8758 12.4061H17.0337V11.3185H17.034ZM11.8503 13.3414C11.6566 13.3414 11.4647 13.3031 11.2857 13.2288C11.1067 13.1545 10.944 13.0455 10.807 12.9082C10.6699 12.7708 10.5612 12.6078 10.4871 12.4283C10.4129 12.2488 10.3747 12.0564 10.3747 11.8622C10.3747 11.6679 10.4128 11.4755 10.4869 11.296C10.5611 11.1165 10.6697 10.9534 10.8067 10.816C10.9437 10.6786 11.1064 10.5696 11.2854 10.4953C11.4644 10.4209 11.6562 10.3826 11.85 10.3826C12.2413 10.3825 12.6166 10.5384 12.8934 10.8158C13.1701 11.0932 13.3256 11.4694 13.3256 11.8618C13.3257 12.2542 13.1703 12.6305 12.8936 12.9079C12.6169 13.1854 12.2417 13.3413 11.8503 13.3414Z" fill="currentColor"/>
</svg>
