<svg width="251" height="38" viewBox="0 0 251 38" fill="none" xmlns="http://www.w3.org/2000/svg">
<g clip-path="url(#clip0_7735_86)">
<path d="M14.501 34.9837V27.4923H0.0365601V22.875L16.15 2.09715H19.6837V22.7808H23.8298V27.4923H19.6837V34.9837H14.501ZM5.31348 22.7808H15.0663V10.0125L5.31348 22.7808ZM25.5944 29C25.5944 27.6808 25.7044 26.4715 25.9242 25.3721C26.1441 24.2413 26.521 23.1734 27.055 22.1683C27.6204 21.1631 28.3899 20.2208 29.3637 19.3413C30.3688 18.4304 31.6409 17.5667 33.18 16.75C34.2794 16.1218 35.3159 15.5721 36.2896 15.101C37.2633 14.5984 38.1271 14.1115 38.881 13.6404C39.6348 13.1378 40.2159 12.6038 40.6242 12.0385C41.064 11.4731 41.2839 10.8292 41.2839 10.1067C41.2839 9.41574 41.0954 8.77184 40.7185 8.17505C40.3415 7.57824 39.7762 7.10709 39.0223 6.76158C38.2685 6.38465 37.3576 6.19619 36.2896 6.19619C35.4415 6.19619 34.6563 6.30613 33.9339 6.526C33.2428 6.74587 32.5989 7.04428 32.0021 7.4212C31.4367 7.76671 30.9185 8.15933 30.4473 8.59908C29.9762 9.00741 29.5678 9.41575 29.2223 9.82409L25.9714 6.10196C26.2855 5.72504 26.7723 5.301 27.4319 4.82985C28.123 4.32728 28.9396 3.84042 29.8819 3.36927C30.8556 2.8667 31.955 2.45837 33.18 2.14427C34.405 1.79875 35.7399 1.626 37.1848 1.626C39.2265 1.626 40.9697 1.97151 42.4146 2.66254C43.8595 3.32215 44.9589 4.24876 45.7127 5.44235C46.498 6.60453 46.8906 7.92376 46.8906 9.40004C46.8906 10.5622 46.655 11.583 46.1839 12.4625C45.7441 13.342 45.163 14.1272 44.4406 14.8183C43.7181 15.4779 42.9486 16.059 42.1319 16.5615C41.3467 17.0327 40.6085 17.4567 39.9175 17.8337C38.6925 18.4304 37.6246 18.9801 36.7137 19.4827C35.8342 19.9853 35.0803 20.4878 34.4521 20.9904C33.8239 21.4615 33.3056 21.9641 32.8973 22.4981C32.489 23.0006 32.1435 23.6131 31.8608 24.3356H47.4089V29H25.5944ZM59.6357 29.3958C58.079 29.3958 56.6542 29.1187 55.3614 28.5647C54.0949 27.9842 52.9868 27.1927 52.0369 26.19C51.1134 25.1874 50.3879 24.0397 49.8602 22.7468C49.3589 21.454 49.1082 20.082 49.1082 18.6308C49.1082 16.6784 49.5436 14.8974 50.4143 13.288C51.2849 11.6785 52.5118 10.3988 54.0949 9.44905C55.678 8.47282 57.5117 7.98469 59.5961 7.98469C61.6277 7.98469 63.3955 8.44642 64.8994 9.36988C66.4297 10.2669 67.5643 11.4806 68.303 13.0109L64.8994 14.0795C64.3717 13.1033 63.6329 12.3513 62.6831 11.8236C61.7333 11.2695 60.6779 10.9925 59.5169 10.9925C58.2505 10.9925 57.0896 11.3223 56.0342 11.9819C55.0052 12.6415 54.1873 13.5518 53.5804 14.7127C52.9736 15.8473 52.6701 17.1533 52.6701 18.6308C52.6701 20.082 52.9736 21.4012 53.5804 22.5885C54.2136 23.7495 55.0448 24.6729 56.0738 25.3589C57.1291 26.0449 58.2901 26.3879 59.5565 26.3879C60.3744 26.3879 61.1528 26.2428 61.8916 25.9526C62.6567 25.6623 63.3163 25.2798 63.8704 24.8048C64.4509 24.3035 64.8466 23.7627 65.0577 23.1822L68.4613 24.2112C68.0392 25.2138 67.3928 26.1109 66.5221 26.9024C65.6778 27.6676 64.6619 28.2744 63.4746 28.723C62.3137 29.1715 61.0341 29.3958 59.6357 29.3958ZM79.6548 29.3958C78.0981 29.3958 76.6865 29.1187 75.4201 28.5647C74.1536 27.9842 73.0586 27.2058 72.1352 26.2296C71.2117 25.227 70.4993 24.0793 69.998 22.7864C69.4967 21.4936 69.2461 20.1348 69.2461 18.71C69.2461 17.2588 69.4967 15.8868 69.998 14.594C70.4993 13.3012 71.2117 12.1666 72.1352 11.1904C73.0586 10.1878 74.1536 9.40946 75.4201 8.85538C76.7129 8.27492 78.1245 7.98469 79.6548 7.98469C81.2115 7.98469 82.6231 8.27492 83.8895 8.85538C85.156 9.40946 86.251 10.1878 87.1744 11.1904C88.1243 12.1666 88.8498 13.3012 89.3511 14.594C89.8525 15.8868 90.1031 17.2588 90.1031 18.71C90.1031 20.1348 89.8525 21.4936 89.3511 22.7864C88.8498 24.0793 88.1375 25.227 87.214 26.2296C86.2905 27.2058 85.1824 27.9842 83.8895 28.5647C82.6231 29.1187 81.2115 29.3958 79.6548 29.3958ZM72.808 18.7496C72.808 20.1743 73.1114 21.4672 73.7183 22.6281C74.3515 23.789 75.1826 24.7125 76.2116 25.3985C77.2406 26.0581 78.3883 26.3879 79.6548 26.3879C80.9213 26.3879 82.069 26.0449 83.098 25.3589C84.1534 24.6729 84.9845 23.7495 85.5913 22.5885C86.2246 21.4012 86.5412 20.0952 86.5412 18.6704C86.5412 17.2457 86.2246 15.9528 85.5913 14.7919C84.9845 13.631 84.1534 12.7075 83.098 12.0215C82.069 11.3355 80.9213 10.9925 79.6548 10.9925C78.3883 10.9925 77.2406 11.3487 76.2116 12.0611C75.1826 12.7471 74.3515 13.6705 73.7183 14.8315C73.1114 15.9924 72.808 17.2984 72.808 18.7496ZM123.887 29H120.405V17.4435C120.405 15.28 120.048 13.6837 119.336 12.6547C118.65 11.6257 117.621 11.1112 116.249 11.1112C114.851 11.1112 113.584 11.6257 112.45 12.6547C111.315 13.6573 110.51 14.9634 110.035 16.5728V29H106.553V17.4435C106.553 15.2536 106.21 13.6573 105.524 12.6547C104.838 11.6257 103.809 11.1112 102.437 11.1112C101.065 11.1112 99.7981 11.6125 98.6372 12.6152C97.5027 13.5914 96.6979 14.8974 96.223 16.5333V29H92.7402V8.34089H95.9064V12.7735C96.7507 11.2432 97.8457 10.069 99.1913 9.25115C100.537 8.40684 102.054 7.98469 103.743 7.98469C105.458 7.98469 106.83 8.45961 107.859 9.40946C108.888 10.3329 109.521 11.5334 109.758 13.0109C110.682 11.3751 111.803 10.135 113.122 9.29074C114.442 8.42005 115.946 7.98469 117.634 7.98469C118.821 7.98469 119.811 8.20897 120.602 8.65751C121.42 9.07966 122.067 9.6865 122.542 10.478C123.017 11.2432 123.36 12.1534 123.571 13.2088C123.782 14.2642 123.887 15.4119 123.887 16.652V29ZM138.841 29.3958C137.152 29.3958 135.648 28.9736 134.329 28.1293C133.01 27.285 131.967 26.2164 131.202 24.9236V37.4299H127.719V8.34089H130.806V12.2194C131.624 10.9529 132.693 9.93715 134.012 9.172C135.331 8.38046 136.769 7.98469 138.326 7.98469C139.751 7.98469 141.057 8.27492 142.244 8.85538C143.431 9.43585 144.46 10.2273 145.331 11.23C146.202 12.2326 146.875 13.3803 147.35 14.6732C147.851 15.9396 148.102 17.272 148.102 18.6704C148.102 20.6229 147.706 22.417 146.914 24.0529C146.149 25.6887 145.067 26.9948 143.669 27.971C142.271 28.9208 140.661 29.3958 138.841 29.3958ZM137.772 26.3879C138.801 26.3879 139.724 26.1768 140.542 25.7547C141.387 25.3062 142.099 24.7257 142.68 24.0133C143.286 23.2745 143.748 22.4434 144.065 21.52C144.381 20.5965 144.54 19.6467 144.54 18.6704C144.54 17.6414 144.355 16.6652 143.986 15.7417C143.643 14.8183 143.141 14.0003 142.482 13.288C141.848 12.5756 141.096 12.0215 140.226 11.6257C139.381 11.2036 138.458 10.9925 137.455 10.9925C136.822 10.9925 136.163 11.1112 135.477 11.3487C134.817 11.5862 134.184 11.9292 133.577 12.3777C132.97 12.7998 132.455 13.288 132.033 13.842C131.611 14.3961 131.334 14.9898 131.202 15.623V21.52C131.598 22.417 132.126 23.235 132.785 23.9737C133.445 24.7125 134.21 25.3062 135.081 25.7547C135.951 26.1768 136.849 26.3879 137.772 26.3879ZM149.172 23.0239C149.172 21.7047 149.541 20.5701 150.28 19.6203C151.045 18.644 152.087 17.8921 153.407 17.3644C154.726 16.8367 156.256 16.5728 157.998 16.5728C158.921 16.5728 159.897 16.652 160.926 16.8103C161.955 16.9422 162.866 17.1533 163.657 17.4435V15.9396C163.657 14.3565 163.182 13.1165 162.232 12.2194C161.283 11.2959 159.937 10.8342 158.196 10.8342C157.061 10.8342 155.966 11.0453 154.911 11.4674C153.882 11.8632 152.787 12.4437 151.626 13.2088L150.359 10.755C151.705 9.83161 153.051 9.14561 154.396 8.69708C155.742 8.22215 157.14 7.98469 158.591 7.98469C161.23 7.98469 163.314 8.72347 164.844 10.201C166.375 11.6521 167.14 13.6837 167.14 16.2958V25.0423C167.14 25.4645 167.219 25.7811 167.377 25.9922C167.562 26.1768 167.852 26.2824 168.248 26.3088V29C167.905 29.0528 167.602 29.0923 167.338 29.1187C167.1 29.1451 166.902 29.1583 166.744 29.1583C165.926 29.1583 165.306 28.934 164.884 28.4855C164.488 28.037 164.264 27.562 164.211 27.0607L164.132 25.7547C163.235 26.9156 162.061 27.8127 160.61 28.4459C159.159 29.0792 157.721 29.3958 156.296 29.3958C154.924 29.3958 153.697 29.1187 152.615 28.5647C151.533 27.9842 150.689 27.219 150.082 26.2692C149.475 25.293 149.172 24.2112 149.172 23.0239ZM162.628 24.4882C162.945 24.1188 163.195 23.7495 163.38 23.3801C163.565 22.9843 163.657 22.6545 163.657 22.3907V19.8182C162.839 19.5015 161.982 19.2641 161.085 19.1058C160.188 18.9211 159.304 18.8287 158.433 18.8287C156.665 18.8287 155.227 19.1849 154.119 19.8973C153.037 20.5833 152.496 21.5332 152.496 22.7468C152.496 23.4065 152.668 24.0529 153.011 24.6861C153.38 25.293 153.908 25.7943 154.594 26.19C155.306 26.5858 156.177 26.7837 157.206 26.7837C158.288 26.7837 159.317 26.5726 160.293 26.1505C161.269 25.7019 162.048 25.1478 162.628 24.4882ZM189.054 29H185.571V17.4435C185.571 15.2536 185.228 13.6573 184.542 12.6547C183.883 11.6257 182.867 11.1112 181.495 11.1112C180.545 11.1112 179.595 11.3487 178.645 11.8236C177.722 12.2985 176.891 12.945 176.152 13.7629C175.44 14.5544 174.925 15.4779 174.609 16.5333V29H171.126V8.34089H174.292V12.7735C174.846 11.7972 175.558 10.9529 176.429 10.2405C177.3 9.5282 178.289 8.97412 179.397 8.57835C180.505 8.18259 181.666 7.98469 182.88 7.98469C184.067 7.98469 185.057 8.20897 185.848 8.65751C186.666 9.07966 187.3 9.6865 187.748 10.478C188.223 11.2432 188.553 12.1534 188.737 13.2088C188.949 14.2642 189.054 15.4119 189.054 16.652V29ZM192.887 29V8.34089H196.37V29H192.887ZM192.887 4.46234V0.108887H196.37V4.46234H192.887ZM209.449 29.3958C207.892 29.3958 206.48 29.1187 205.214 28.5647C203.947 27.9842 202.852 27.2058 201.929 26.2296C201.005 25.227 200.293 24.0793 199.792 22.7864C199.29 21.4936 199.04 20.1348 199.04 18.71C199.04 17.2588 199.29 15.8868 199.792 14.594C200.293 13.3012 201.005 12.1666 201.929 11.1904C202.852 10.1878 203.947 9.40946 205.214 8.85538C206.507 8.27492 207.918 7.98469 209.449 7.98469C211.005 7.98469 212.417 8.27492 213.683 8.85538C214.95 9.40946 216.045 10.1878 216.968 11.1904C217.918 12.1666 218.644 13.3012 219.145 14.594C219.646 15.8868 219.897 17.2588 219.897 18.71C219.897 20.1348 219.646 21.4936 219.145 22.7864C218.644 24.0793 217.931 25.227 217.008 26.2296C216.084 27.2058 214.976 27.9842 213.683 28.5647C212.417 29.1187 211.005 29.3958 209.449 29.3958ZM202.602 18.7496C202.602 20.1743 202.905 21.4672 203.512 22.6281C204.145 23.789 204.976 24.7125 206.005 25.3985C207.034 26.0581 208.182 26.3879 209.449 26.3879C210.715 26.3879 211.863 26.0449 212.892 25.3589C213.947 24.6729 214.778 23.7495 215.385 22.5885C216.018 21.4012 216.335 20.0952 216.335 18.6704C216.335 17.2457 216.018 15.9528 215.385 14.7919C214.778 13.631 213.947 12.7075 212.892 12.0215C211.863 11.3355 210.715 10.9925 209.449 10.9925C208.182 10.9925 207.034 11.3487 206.005 12.0611C204.976 12.7471 204.145 13.6705 203.512 14.8315C202.905 15.9924 202.602 17.2984 202.602 18.7496ZM240.462 29H236.98V17.4435C236.98 15.2536 236.637 13.6573 235.951 12.6547C235.291 11.6257 234.275 11.1112 232.903 11.1112C231.953 11.1112 231.003 11.3487 230.054 11.8236C229.13 12.2985 228.299 12.945 227.56 13.7629C226.848 14.5544 226.333 15.4779 226.017 16.5333V29H222.534V8.34089H225.7V12.7735C226.254 11.7972 226.967 10.9529 227.837 10.2405C228.708 9.5282 229.697 8.97412 230.806 8.57835C231.914 8.18259 233.075 7.98469 234.288 7.98469C235.476 7.98469 236.465 8.20897 237.257 8.65751C238.075 9.07966 238.708 9.6865 239.156 10.478C239.631 11.2432 239.961 12.1534 240.146 13.2088C240.357 14.2642 240.462 15.4119 240.462 16.652V29Z" fill="white"/>
<path d="M243.585 29V21.272H250.053V29H243.585Z" fill="#D2FF1F"/>
</g>
<defs>
<clipPath id="clip0_7735_86">
<rect width="251" height="38" fill="white"/>
</clipPath>
</defs>
</svg>
