<svg width="18" height="19" viewBox="0 0 18 19" fill="none" xmlns="http://www.w3.org/2000/svg">
<path d="M12.5 11.7871H11.71L11.43 11.5171C12.4439 10.3411 13.0011 8.83981 13 7.28711C13 6.00153 12.6188 4.74483 11.9046 3.67591C11.1903 2.60699 10.1752 1.77386 8.98744 1.2819C7.79973 0.789926 6.49279 0.661204 5.23192 0.912008C3.97104 1.16281 2.81285 1.78188 1.90381 2.69092C0.994767 3.59996 0.375703 4.75815 0.124899 6.01902C-0.125905 7.2799 0.00281635 8.58683 0.494786 9.77455C0.986756 10.9623 1.81988 11.9774 2.8888 12.6917C3.95772 13.4059 5.21442 13.7871 6.5 13.7871C8.11 13.7871 9.59 13.1971 10.73 12.2171L11 12.4971V13.2871L16 18.2771L17.49 16.7871L12.5 11.7871ZM6.5 11.7871C4.01 11.7871 2 9.77711 2 7.28711C2 4.79711 4.01 2.78711 6.5 2.78711C8.99 2.78711 11 4.79711 11 7.28711C11 9.77711 8.99 11.7871 6.5 11.7871Z" fill="black"/>
</svg>
